<svg width="30" height="30" viewBox="0 0 30 30" fill="none" xmlns="http://www.w3.org/2000/svg">
<g clip-path="url(#clip0_10_1391)">
<path d="M14.8357 10.0475C16.1606 10.0475 17.2447 8.94059 17.2447 7.58767C17.2447 6.23474 16.1606 5.12781 14.8357 5.12781C13.5107 5.12781 12.4266 6.23474 12.4266 7.58767C12.4266 8.94059 13.5107 10.0475 14.8357 10.0475ZM14.8357 12.5074C13.5107 12.5074 12.4266 13.6143 12.4266 14.9672C12.4266 16.3202 13.5107 17.4271 14.8357 17.4271C16.1606 17.4271 17.2447 16.3202 17.2447 14.9672C17.2447 13.6143 16.1606 12.5074 14.8357 12.5074ZM14.8357 19.887C13.5107 19.887 12.4266 20.9939 12.4266 22.3468C12.4266 23.6997 13.5107 24.8067 14.8357 24.8067C16.1606 24.8067 17.2447 23.6997 17.2447 22.3468C17.2447 20.9939 16.1606 19.887 14.8357 19.887Z" fill="#A0AEC0"/>
</g>
<defs>
<clipPath id="clip0_10_1391">
<rect width="28.9085" height="29.5183" fill="white" transform="translate(0.38147 0.208069)"/>
</clipPath>
</defs>
</svg>
